<svg xmlns="http://www.w3.org/2000/svg" viewBox="483.897 346.027 84.827 85.946" ><defs><radialGradient id="a" cx="0" cy="0" r="1" gradientTransform="matrix(29.93573 38.33225 -28.4025 22.18105 515.989 370.05)" gradientUnits="userSpaceOnUse"><stop offset="0.506" stop-color="#17A1F3"></stop><stop offset="0.767" stop-color="#1B7FFA"></stop><stop offset="0.962" stop-color="#1366F0"></stop><stop offset="1" stop-color="#1160EE"></stop></radialGradient><radialGradient id="b" cx="0" cy="0" r="1" gradientTransform="matrix(20.78754 -4.2687 2.63671 12.84017 495.452 375.409)" gradientUnits="userSpaceOnUse"><stop offset="0.344" stop-color="#E3DDA6"></stop><stop offset="0.996" stop-color="#E3DDA6" stop-opacity="0"></stop></radialGradient><radialGradient id="c" cx="0" cy="0" r="1" gradientTransform="matrix(16.618 0 0 17.0642 515.051 412.465)" gradientUnits="userSpaceOnUse"><stop offset="0.723" stop-color="#E3DDA6"></stop><stop offset="1" stop-color="#E3DDA6" stop-opacity="0"></stop></radialGradient><radialGradient id="d" cx="0" cy="0" r="1" gradientTransform="matrix(11.9316 0 0 12.252 525.956 426.856)" gradientUnits="userSpaceOnUse"><stop offset="0.403" stop-color="#E3DDA6"></stop><stop offset="1" stop-color="#E3DDA6" stop-opacity="0"></stop></radialGradient></defs><path fill="#98C0D0" d="M526.31 431.973c23.425 0 42.414-19.24 42.414-42.973s-18.989-42.973-42.414-42.973c-23.424 0-42.413 19.24-42.413 42.973s18.989 42.973 42.413 42.973Z"></path><path fill="#fff" d="M526.31 423.479c18.795 0 34.03-15.437 34.03-34.479s-15.235-34.479-34.03-34.479c-18.794 0-34.03 15.437-34.03 34.479s15.236 34.479 34.03 34.479Z"></path><path fill="url(#a)" d="M494.511 389.294c.357 13.184 8.937 32.176 32.324 31.934 22.788-.238 31.962-19.615 31.247-33.534-.721-13.919-11.394-31.047-32.504-30.923-21.115.119-31.457 18.35-31.067 32.523Z"></path><path fill-opacity="0.1" d="M494.511 389.294c.357 13.184 8.937 32.176 32.324 31.934 22.788-.238 31.962-19.615 31.247-33.534-.721-13.919-11.394-31.047-32.504-30.923-21.115.119-31.457 18.35-31.067 32.523Z"></path><path fill="#fff" d="M526.015 356.778s-.237.686 1.141 1.118c1.379.433 2.11.46 3.093.924.984.459 1.573 1.183 2.978 1.934 1.404.751 1.883.924 2.136.405.115-.232-.363-1.269-.363-1.269s.226-.983-.111-1.329c-.284-.292-1.852-.945-2.414-1.178-.526-.216-2.415-.453-3.32-.513-2.22-.14-3.14-.092-3.14-.092Z"></path><path fill="#7ADD8A" d="M518.666 381.259c.048.124.342.74.931.907.589.168 2.146.2 2.52.351.379.151 1.294.638 1.541.789.247.151 1.21.983 1.442 1.059.541.183.852-.152 1.099-.065.247.086.395.572.884.605.294.021.673-.47.952-.524.279-.054 1.704.065 1.736-.405.031-.47-.968-1.448-1.557-1.448-.495 0-.574.438-.952.454-.379.016-.621-.405-1.063-.389-.442.016-.673.405-.915.286-.248-.119-2.883-1.982-3.572-2.188-.689-.199-2.488.049-2.735.119-.242.081-.39.233-.311.449Z"></path><path fill="#7ADD8A" d="M507.162 365.837c.394-.983 1.015-2.469 1.857-3.425.847-.956 2.293-2.285 2.293-2.285s2.578-1.388 6.465-2.425c3.888-1.037 7.649-.918 7.649-.918s-.326.313-.3.486c.026.173.026.464.705.724.673.259 2.025.432 2.393.869.368.432.479 1.01.058 1.302-.421.292-1.184.2-1.915-.027-.731-.232-.705-.259-.789-.518-.084-.26.731-.379.621-.638-.11-.259-.479-.146-.9-.378-.42-.232-.726-.286-.989-.173-.263.114-.52.686-.636.972-.116.287-.179.384-.295.47-.115.087-.831.049-1.025.065-.195.016-.963.384-1.415.6-.458.216-1.415.454-1.631.637-.211.184-.405.486-.047.719.357.232 1.157.47 1.63.637.474.167 1.305.184 1.415.335.116.151.016.853.1.956.079.103.39.519.584.486.195-.032.474-.805.584-1.037.116-.232.894-.502.831-.87-.063-.367-.426-.437-.442-.653-.015-.216.242-.67.227-.789-.016-.119.015-.788.357-.853.342-.065.816.2 1.205.335.389.135.784-.017 1.383.399.605.416.474.735.768.751.295.016.311-.486.7-.551.389-.065 1.126.686 2.052 1.253.925.567 2.183 1.356 2.556 1.907.374.551.242.686.537.886.294.2 1.273.751 1.32.988.047.233-.016.551-.978.487-.963-.065-1.368-.319-1.6-.568-.226-.248-.242-.486-.179-.637.064-.151.327-.167.327-.167s.147-.622-.242-.805c-.39-.184-.768-.303-1.973-.103s-2.02.486-2.183.751c-.163.27-.016.6.195.6.21 0 .978-.454 1.252-.368.278.081 0 1.005.21 1.14s.847.065 1.189.081c.342.016.699-.032.878.248.179.281-.31.551-.768.751-.457.2-1.125.654-1.32.821-.195.168-.521.319-.652.033-.132-.287.015-.821.015-.821s-1.109.453-1.288.669c-.179.217.1.886-.263 1.237-.358.352-.995.081-1.321.233-.326.151-.894.718-1.273 1.188-.373.47-.568.719-.568 1.053 0 .335.358.67-.226 1.172-.584.503-.894.384-1.415.638-.521.248-1.305.718-1.615 1.421-.31.702.079 2.106.147 2.592.063.486.295 1.572-.242 1.588-.536.017-.605-.335-.994-1.42-.389-1.086-.536-1.572-.831-1.723-.295-.152-.668-.017-1.32.064-.653.082-3.278.2-3.814.2-.537 0-1.221-.167-1.826.638-.604.805-.552 1.253-.568 1.858-.015.605-.21.788-.489 1.307-.279.519-.358 1.955-.263 2.193.1.232.931 1.172 1.073 1.172.148 0 1.499.065 1.726-.016.226-.081.489-.416.62-.751.132-.335.079-.621.442-.988.363-.368.847-.319 1.158-.335.31-.016.552-.081.831-.119.279-.032.699.4.684.551-.016.151-.621.789-.784 1.14l-.163.351s-.116.535-.263.767c-.148.232-.263.47-.39.637-.131.168-.047.486.227.551.278.065.226-.151.326-.2.1-.048 1.662-.016 1.988.017.326.032.815.518.863.686.047.167.063 1.155-.116 1.658-.179.502-.473.767-.505.956-.031.184.047.47.047.47s.242.47.605.821c.358.351.747.567.747.567s.832 0 1.273-.016c.442-.016.747-.081 1.042.135.295.216.815.853.931.837.116-.016.279-.67 1.189-1.421.91-.75 1.273-.837 1.809-.918.537-.081.637.168.637.168s.242.216.668.032c.426-.184.373-.454 1.026-.416.652.038 1.057.4 1.499.519.442.119 1.273.183 2.151.232.879.049 1.415-.081 1.742-.032.326.048.605.437.783.599.179.168.179.438.179.438s.342.081.668.318c.326.233.637.821 1.042.989.405.167 1.141.081 2.004.135.863.049 1.11.151 1.547.583.436.432.699 1.005.862 1.491.163.486.405 1.604.405 1.604s.637-.199 1.631.216c.994.416 1.073.838 1.073.838s1.546-.049 1.973-.033c.426.017 1.531.789 1.646 1.054.116.27-.115 2.328-.078 2.641.031.319-1.142 2.042-1.437 2.328-.295.286-.489.621-.946 1.956-.458 1.334-.784 2.225-1.026 2.473-.242.249-1.01 1.189-1.81 1.589-.799.399-1.273.334-1.809.599-.537.27-.947 1.14-1.205 1.739-.263.6-.1 1.34-.242 1.572-.147.232-2.02 2.123-2.378 2.242-.357.119-2.035-.184-2.314.049-.279.232.342.901.279 1.123-.064.216-.605.805-1.074 1.172-.473.368-.878.903-1.204.956-.326.049-.731-.183-1.058.2-.326.383.032 1.005-.115 1.269-.148.27-.484.514-.679.881-.194.367-.337.497-.337.497s-1.483.135-2.367.184c-.878.048-2.661.027-2.661.027s.399-.805.452-1.61c.053-.805-.195-1.237-.032-1.707.164-.47.684-1.021.684-1.021s.374-1.842.342-3.095c-.031-1.253-.179-1.993-.194-2.225-.016-.233.115-4.381.047-4.635-.063-.249-.931-.718-1.352-1.102-.426-.383-1.578-.902-1.888-1.388-.311-.486-.39-.67-.505-.854a69.167 69.167 0 0 1-1.205-2.225c-.211-.416-.731-.789-.947-1.372-.216-.583-.21-1.07-.047-1.253.163-.184.426-.335.373-.551-.047-.216-.521-.249-.357-.956.163-.708.731-1.34.878-1.475.147-.135.263.016.405-.119.147-.135 1.057-.934 1.173-1.086.116-.151.079-1.22-.079-1.674-.163-.454-.815-1.188-1.057-1.269-.242-.081-.831.621-1.352.599-.521-.016-.863 0-1.678-.535-.816-.534-1.957-1.571-2.199-2.009-.242-.437-.147-.6-.295-.837-.147-.232-.91-.654-1.336-.87-.426-.216-.862-.151-1.11-.319-.247-.167-1.436-1.523-1.662-1.804-.226-.286-.426-.367-.584-.383-.158-.016-.31.216-.442.248-.131.033-1.189.049-1.352-.032-.163-.081-1.436-.751-2.067-1.356-.631-.605-1.436-1.021-1.794-1.523-.357-.503.016-1.037.063-1.307.048-.27-.015-1.27-.047-1.621-.031-.351-.621-.988-.7-1.691-.078-.702-.31-1.404-.373-1.739-.063-.335-.032-1.507-.116-1.572-.079-.065-.489-.232-.584.503-.094.734.132 1.285.179 2.122.048.838.048 1.34.163 1.588.116.249.505.768.195.935-.31.167-.716-.184-.947-.654-.226-.47-.047-1.355-.242-1.788-.195-.432-.263-1.285-.31-1.706-.048-.416-.226-1.475-.179-2.393.047-.919.326-1.005.326-1.005s0-1.07.016-1.286c.016-.216 1.057-2.225 1.904-3.343a62.442 62.442 0 0 0 1.489-1.977Z"></path><path fill="url(#b)" d="M514.752 384.948c.085-1.361-.636-1.442-.862-1.361-.226.081-1.578.016-1.726.016-.147 0-.978-.935-1.073-1.172-.1-.233-.016-1.675.263-2.193.279-.519.474-.703.489-1.308.016-.605-.031-1.053.569-1.858.605-.805 1.288-.637 1.825-.637.537 0 3.161-.119 3.814-.2.652-.081 1.025-.216 1.32-.065.295.151.442.638.831 1.723.389 1.086.458 1.437.994 1.421.537-.016.311-1.102.242-1.588-.063-.486-.457-1.891-.147-2.593.31-.702 1.094-1.172 1.615-1.42.521-.249.831-.136 1.415-.638.584-.502.226-.837.226-1.172 0-.335.195-.583.568-1.053.374-.47.947-1.037 1.273-1.189.326-.151.963.119 1.321-.232.357-.351.079-1.021.263-1.237.179-.216 1.289-.67 1.289-.67s-.148.535-.016.821c.131.287.457.135.652-.032.195-.168.863-.621 1.32-.821.458-.2.947-.47.768-.751-.178-.281-.536-.232-.878-.248-.342-.017-.978.048-1.189-.081-.21-.136.063-1.054-.21-1.14-.279-.081-1.042.367-1.252.367-.211 0-.358-.335-.195-.599.163-.271-5.066-.767-5.26-.735-.195.032-.505-.384-.584-.486-.079-.103.016-.805-.1-.956-.116-.152-.947-.168-1.415-.335-.474-.168-1.273-.4-1.631-.638-.358-.237-.163-.534.047-.718.211-.184 1.174-.416 1.631-.637.458-.216 1.221-.584 1.415-.6.195-.016.91.016 1.026-.065.116-.081.179-.183.295-.47.115-.286.373-.853.636-.972s.847-.983.821-1.156c-.027-.173.299-.486.299-.486s-3.761-.124-7.648.918c-3.887 1.043-6.465 2.425-6.465 2.425s-1.447 1.329-2.294 2.285c-.846.956-1.462 2.442-1.856 3.425 0 0-.621.87-1.468 1.993-.847 1.124-1.889 3.128-1.904 3.344-.016.216-.016 1.285-.016 1.285s-.279.081-.326 1.005c-.048.918.131 1.972.179 2.393.047.416.115 1.269.31 1.707.195.437.016 1.323.242 1.788.226.47.636.821.947.653.31-.167-.079-.686-.195-.934-.116-.249-.116-.751-.163-1.588-.047-.837-.279-1.388-.179-2.123.1-.735.505-.567.584-.502.079.065.047 1.237.116 1.571.063.335.294 1.038.373 1.74.079.702.668 1.339.7 1.691.032.351.1 1.355.047 1.62-.047.27-.426.805-.063 1.307.358.503 1.157.918 1.794 1.523.636.605 1.904 1.27 2.067 1.356.163.081 1.221.065 1.352.033.132-.033.279-.27.442-.249.163.022.852.616 1.142.567.499-.091 1.53-.064 1.593-1.069Z"></path><path fill="url(#c)" d="M523.28 392.856c.063.475.194 1.523.078 1.674-.115.151-1.025.956-1.173 1.086-.147.135-.263-.016-.405.119-.147.135-.715.767-.878 1.474-.163.708.31.735.357.956.048.222-.21.368-.373.551-.163.184-.163.67.047 1.253.211.584.732.957.947 1.372a94.384 94.384 0 0 0 1.205 2.226c.116.184.194.367.505.853.31.487 1.468 1.005 1.888 1.389.426.383 1.289.853 1.352 1.102.063.248-.063 4.402-.047 4.634.016.233.163.973.195 2.225.031 1.254-.342 3.096-.342 3.096s-.521.55-.684 1.02c-.163.471.079.903.031 1.708-.047.804-.452 1.609-.452 1.609s1.778.022 2.662-.027a92.107 92.107 0 0 0 2.367-.183s.142-.13.336-.497c.195-.368.532-.611.679-.881.147-.27-.21-.886.116-1.27.326-.383.731-.151 1.057-.199.326-.049.731-.583 1.205-.957.473-.366 1.01-.955 1.073-1.171.063-.217-.552-.886-.279-1.124.279-.232 1.957.065 2.315-.049.357-.119 2.23-2.009 2.377-2.241.148-.233-.015-.972.242-1.572.263-.599.437-10.177-2.346-14.336-3.256-4.872-14.366-6.293-14.055-3.84Z"></path><path fill="url(#d)" d="M523.29 392.877c.063.476.195 1.524.079 1.675-.116.151-1.026.956-1.173 1.085-.147.135-.263-.016-.405.119-.147.135-.716.767-.879 1.475-.163.708.311.735.358.956.047.221-.21.367-.373.551-.164.184-.164.67.047 1.253.21.584.731.956.947 1.372.21.416 1.094 2.042 1.204 2.226.111.183.195.367.505.853.311.486 1.468 1.005 1.889 1.388.426.384 1.289.854 1.352 1.102.063.249-.063 4.402-.048 4.635.016.232.164.972.195 2.225.032 1.253-.342 3.095-.342 3.095s-.521.552-.684 1.022c-.163.469.079.901.032 1.706-.048.805-.453 1.61-.453 1.61s1.778.022 2.662-.027c.879-.049 2.367-.184 2.367-.184s.142-.13.337-.497c.195-.367.531-.61.679-.88.147-.27-.211-.886.115-1.269.326-.384.731-.152 1.058-.2.326-.049.731-.584 1.204-.956.474-.368 1.01-.957 1.073-1.173.064-.216-.552-.886-.278-1.124.273-.237 1.956.066 2.314-.048.358-.118 2.231-2.009 2.378-2.241.147-.233-.016-.973.242-1.572.263-.6.436-10.177-2.346-14.336-3.262-4.878-14.372-6.293-14.056-3.841Z"></path><path fill="#4B9EEC" d="M517.693 366.318c.147.205.815-.044 1.131-.027.316.016.658.145.7.443.042.291-.274.34-.458.718-.095.194-.731 1.507-.384 1.658.458.205.684-.264.784-.486.1-.221.342-.691.342-.691s.273-.616.631-.573c.642.076.384 1.016.384 1.016s-.142.702.2.864c.342.162.673.043.857-.027.184-.076.5 0 .874-.162.373-.162.531-.308.783-.411.258-.102.484-.043.516-.281.026-.232-.2-.47-.584-.497-.384-.027-.858.427-1.015.573-.158.146-.674.248-.732-.13-.057-.378.274-.41.516-.556.242-.146.4-.351.4-.351s-.442-.589-.574-.632c-.126-.043-.641.119-1.157-.249-.479-.34-.673-.804-.799-.923-.127-.119-.7-.308-1.258-.189-.557.119-1.388.588-1.157.913Z"></path><path fill="#C2E3F0" d="M516.626 353.948c-4.538 1.332-10.893 3.374-17.694 11.603-6.715 8.143-8.101 17.605-8.532 24.129 0 0-3.881 4.921-4.065 4.004-1.463-7.126 1.492-23.055 9.218-31.478 8.992-9.798 20.684-13.271 24.911-13.923.728-.115-2.46 5.264-3.838 5.665Z"></path><path fill="#fff" fill-rule="evenodd" d="M526.31 366.797c.781 0 1.414.642 1.414 1.433V389c0 .791-.633 1.432-1.414 1.432-.78 0-1.413-.641-1.413-1.432v-20.77c0-.791.633-1.433 1.413-1.433Z" clip-rule="evenodd"></path><path fill="#fff" d="M526.31 392.624c1.976 0 3.577-1.622 3.577-3.624 0-2.001-1.601-3.624-3.577-3.624-1.975 0-3.577 1.623-3.577 3.624 0 2.002 1.602 3.624 3.577 3.624Z"></path><path fill="#fff" fill-rule="evenodd" d="M541.295 380.221a2.164 2.164 0 0 1-.757 2.941l-12.95 7.692c-1.011.6-2.31.256-2.902-.767a2.164 2.164 0 0 1 .757-2.94l12.95-7.693a2.106 2.106 0 0 1 2.902.767Z" clip-rule="evenodd"></path><path fill="#FCEBCD" fill-rule="evenodd" d="M524.543 363.216v-3.581h3.535v3.581h-3.535Zm-27.215 23.994h3.534v3.581h-3.534v-3.581Zm54.431 0h3.534v3.581h-3.534v-3.581Zm-27.216 31.155v-3.581h3.535v3.581h-3.535Zm-11.875-51.159-1.767-3.102 1.836-1.074 1.767 3.101-1.836 1.075Zm25.448-1.075 1.767-3.101 1.837 1.074-1.767 3.102-1.837-1.075Zm-34.377 10.908-3.061-1.791 1.061-1.861 3.06 1.791-1.06 1.861Zm44.082-1.861 3.061-1.791 1.06 1.861-3.06 1.791-1.061-1.861Zm-47.143 27.574 3.061-1.79 1.06 1.86-3.06 1.791-1.061-1.861Zm50.204 1.861-3.061-1.791 1.061-1.86 3.06 1.79-1.06 1.861Zm-39.981 9.283 1.767-3.102 1.836 1.075-1.767 3.101-1.836-1.074Zm28.982 1.074-1.767-3.101 1.837-1.075 1.767 3.102-1.837 1.074Z" clip-rule="evenodd"></path></svg>